name analog
datacolumns 19
datarows 23
range 0.166 0.177
endheader
time	ground_force_vx	ground_force_vy	ground_force_vz	ground_force_px	ground_force_py	ground_force_pz	l_ground_force_vx	l_ground_force_vy	l_ground_force_vz	l_ground_force_px	l_ground_force_py	l_ground_force_pz	ground_torque_x	ground_torque_y	ground_torque_z	l_ground_torque_x	l_ground_torque_y	l_ground_torque_z
0.166	-0.0	-0.0	-0.0	-6.424778938293457	55.89286804199219	-371.55169677734375	-11.527634620666504	-60.42152786254883	-451.4843444824219	-35.158843994140625	16.376144409179688	74.78540802001953	-0.0	-0.0	-0.0	81765.1796875	-11689.736328125	-15123.6044921875
0.1665	-0.0	-0.0	-0.0	-6.51402759552002	55.62400436401367	-369.7925720214844	-11.014779090881348	-59.4437370300293	-446.5905456542969	-35.24833679199219	16.01630401611328	75.44804382324219	-0.0	-0.0	-0.0	80845.8828125	-11316.73828125	-14945.0341796875
0.167	-0.0	-0.0	-0.0	-7.051026344299316	55.8830680847168	-369.7525329589844	-11.364968299865724	-58.29728317260742	-442.3882141113281	-35.42381286621094	16.46444320678711	76.16343688964844	-0.0	-0.0	-0.0	80246.4296875	-11214.2998046875	-14885.130859375
0.1675	-0.0	-0.0	-0.0	-7.666975021362305	56.23274612426758	-364.5223083496094	-12.16008186340332	-58.20566177368164	-439.2591247558594	-35.60097122192383	15.92990493774414	75.46157836914062	-0.0	-0.0	-0.0	79322.359375	-10568.6513671875	-14914.779296875
0.168	-0.0	-0.0	-0.0	-8.030693054199219	56.31295394897461	-364.1354675292969	-12.59521770477295	-57.40568161010742	-434.4053039550781	-35.073081970214844	16.18914031982422	73.03311157226562	-0.0	-0.0	-0.0	78480.0	-10709.21484375	-14913.740234375
0.1685	-0.0	-0.0	-0.0	-8.557066917419434	55.89011764526367	-359.8974609375	-12.868318557739258	-56.78561782836914	-431.2367248535156	-35.604469299316406	16.545230865478516	75.46903991699219	-0.0	-0.0	-0.0	77651.28125	-10144.572265625	-14766.6044921875
0.169	-0.0	-0.0	-0.0	-8.667794227600098	55.35716247558594	-358.781005859375	-12.87364101409912	-56.17610168457031	-427.68994140625	-35.25214767456055	16.196382522583008	76.13499450683594	-0.0	-0.0	-0.0	76953.5859375	-9854.919921875	-14619.900390625
0.1695	-0.0	-0.0	-0.0	-9.188682556152344	55.52457809448242	-354.63623046875	-13.569149017333984	-55.10914611816406	-421.789306640625	-35.50751495361328	16.5468692779541	75.43999481201172	-0.0	-0.0	-0.0	76036.1875	-9549.4365234375	-14588.69140625
0.17	-0.0	-0.0	-0.0	-9.465678215026855	55.17546463012695	-354.88653564453125	-13.570911407470703	-53.96272277832031	-417.948974609375	-35.161006927490234	16.112262725830078	76.11908721923828	-0.0	-0.0	-0.0	75765.25	-9482.8173828125	-14442.5400390625
0.1705	-0.0	-0.0	-0.0	-10.246103286743164	54.73916244506836	-349.3246459960937	-13.48955249786377	-53.08499526977539	-414.7776489257813	-35.5150146484375	15.928473472595217	75.46221923828125	-0.0	-0.0	-0.0	75184.9609375	-9025.7978515625	-14441.029296875
0.171	-0.0	-0.0	-0.0	-10.338871955871582	54.73942184448242	-350.7303771972656	-13.306617736816406	-51.84856796264648	-409.2942199707031	-35.50136184692383	16.03224754333496	76.16426849365234	-0.0	-0.0	-0.0	74514.2734375	-8957.8427734375	-14292.2919921875
0.1715	-0.0	-0.0	-0.0	-10.171945571899414	54.62721252441406	-351.720947265625	-13.487863540649414	-51.05183792114258	-404.043701171875	-35.5010986328125	16.542415618896484	76.51536560058594	-0.0	-0.0	-0.0	73623.7421875	-8787.306640625	-14229.716796875
0.17200000000000001	-0.0	-0.0	-0.0	-10.173968315124512	54.09620666503906	-351.374755859375	-13.83498191833496	-49.91534805297852	-401.5166931152344	-35.76920318603516	16.374473571777344	76.49166870117188	-0.0	-0.0	-0.0	73154.4375	-8635.1845703125	-13999.498046875
0.17250000000000001	-0.0	-0.0	-0.0	-10.518838882446287	53.74363708496094	-352.0729064941406	-13.83691692352295	-48.93412780761719	-397.3500061035156	-35.153099060058594	16.27423858642578	75.4547119140625	-0.0	-0.0	-0.0	72379.7890625	-8239.4736328125	-14021.724609375
0.17300000000000001	-0.0	-0.0	-0.0	-10.701184272766112	53.66872024536133	-349.3111267089844	-13.744162559509276	-47.61336898803711	-393.898193359375	-35.15510177612305	16.104564666748047	74.8099136352539	-0.0	-0.0	-0.0	71966.8984375	-8284.4462890625	-13905.978515625
0.17350000000000002	-0.0	-0.0	-0.0	-10.263360977172852	53.38911437988281	-350.3627014160156	-13.663501739501951	-46.81658935546875	-390.7649230957031	-35.333980560302734	16.023113250732422	75.4297866821289	-0.0	-0.0	-0.0	70878.0078125	-8394.5234375	-13671.84375
0.17400000000000002	-0.0	-0.0	-0.0	-10.522671699523926	53.74355316162109	-351.02783203125	-13.915302276611328	-45.85323715209961	-387.9316711425781	-35.851593017578125	16.374473571777344	75.43803405761719	-0.0	-0.0	-0.0	70743.046875	-8517.45703125	-13608.3583984375
0.17450000000000002	-0.0	-0.0	-0.0	-10.864583015441896	53.65862274169922	-349.67333984375	-13.4902982711792	-45.31525802612305	-386.1616821289063	-35.5958137512207	16.455739974975586	76.1566162109375	-0.0	-0.0	-0.0	70122.5390625	-7866.7001953125	-13431.3427734375
0.17500000000000002	-0.0	-0.0	-0.0	-10.70526123046875	53.65650177001953	-348.9674377441406	-13.399576187133787	-44.51836013793945	-383.3768310546875	-35.33829879760742	16.106779098510742	75.81430053710938	-0.0	-0.0	-0.0	69810.921875	-8201.7734375	-13396.478515625
0.17550000000000002	-0.0	-0.0	-0.0	-11.236181259155272	53.83042526245117	-350.6905212402344	-13.91478157043457	-44.33323287963867	-379.17864990234375	-35.15718078613281	16.282278060913086	75.12112426757812	-0.0	-0.0	-0.0	69593.3203125	-7717.55810546875	-13341.7392578125
0.176	-0.0	-0.0	-0.0	-11.22726821899414	53.13055038452149	-348.97674560546875	-13.851921081542969	-43.72356414794922	-377.1264953613281	-35.41654968261719	16.277711868286133	77.15648651123047	-0.0	-0.0	-0.0	68910.8515625	-7764.32421875	-13160.673828125
0.1765	-0.0	-0.0	-0.0	-10.70526123046875	52.863311767578125	-349.6748352050781	-14.018514633178713	-43.273223876953125	-376.35064697265625	-35.33838653564453	16.277597427368164	75.13069915771484	-0.0	-0.0	-0.0	68682.578125	-7663.13818359375	-12896.6328125
0.177	-0.0	-0.0	-0.0	-9.993825912475586	53.02585220336914	-351.1231689453125	-14.111651420593262	-42.5732536315918	-374.63970947265625	-35.33609771728516	16.63747215270996	77.21846008300781	-0.0	-0.0	-0.0	68707.03125	-7833.08740234375	-13012.2197265625
